<?xml version="1.0" encoding="UTF-8" standalone="no"?>
<svg width="76px" height="90px" viewBox="0 0 76 90" version="1.1" xmlns="http://www.w3.org/2000/svg" xmlns:xlink="http://www.w3.org/1999/xlink" xmlns:sketch="http://www.bohemiancoding.com/sketch/ns">
    <!-- Generator: Sketch 3.4.4 (17249) - http://www.bohemiancoding.com/sketch -->
    <title>sprite</title>
    <desc>Created with Sketch.</desc>
    <defs>
        <path id="path-1" d="M0,0 L16,0 L16,16 L0,16 L0,0 Z"></path>
    </defs>
    <g id="Page-1" stroke="none" stroke-width="1" fill="none" fill-rule="evenodd" sketch:type="MSPage">
        <g id="sprite" sketch:type="MSArtboardGroup">
            <g id="Rectangle-703-Copy-2-+-Path-2769-Copy-4-+-Path-2769-Copy-3" sketch:type="MSLayerGroup" transform="translate(10.000000, 10.000000)" stroke="#FFFFFF">
                <path d="M10,0 L20,17 L10,34 L-4.62592927e-17,17 L10,0 Z" id="Rectangle-703-Copy-2" sketch:type="MSShapeGroup"></path>
                <path d="M1,17 L19.4200001,17" id="Path-2769-Copy-4" sketch:type="MSShapeGroup"></path>
                <path d="M10,1 L10,32" id="Path-2769-Copy-3" sketch:type="MSShapeGroup"></path>
            </g>
            <g id="Page-1" sketch:type="MSLayerGroup" transform="translate(36.000000, 54.000000)">
                <mask id="mask-2" sketch:name="Clip 2" fill="white">
                    <use xlink:href="#path-1"></use>
                </mask>
                <g id="Clip-2"></g>
                <path d="M14.142,3.54475 L14.142,3.53675 C14.2815,3.48225 14.3915,3.36675 14.50225,3.28125 C15.00225,2.896 15.3275,2.38875 15.56725,1.74025 C15.4315,1.81475 15.29525,1.88925 15.159,1.96375 C14.73875,2.177 14.02575,2.4835 13.477,2.5305 C12.8305,1.9415 12.154,1.47825 10.8825,1.5005 L10.482,1.5485 C10.22275,1.60525 9.97575,1.6755 9.753,1.772 C8.822,2.176 8.18725,2.92975 7.89525,3.9755 C7.779,4.3915 7.73175,5.08675 7.87925,5.5165 C7.354,5.51575 6.8455,5.433 6.40575,5.32475 C4.6725,4.8985 3.593,4.3225 2.3945,3.385 C2.0425,3.10975 1.69725,2.79775 1.4175,2.451 C1.32725,2.33925 1.185,2.24125 1.12125,2.1075 C1.11575,2.105 1.1105,2.10225 1.10525,2.0995 C0.966,2.3575 0.83525,2.637 0.753,2.95375 C0.428,4.20225 0.94175,5.25075 1.48975,5.93175 C1.65575,6.13825 1.925,6.26625 2.09025,6.45875 L2.10625,6.45875 C1.982,6.50475 1.766,6.441 1.65775,6.41875 C1.40175,6.366 1.1835,6.3175 0.969,6.22725 C0.857,6.174 0.74475,6.12075 0.63275,6.0675 C0.6275,7.44675 1.32425,8.34325 2.17825,8.87775 C2.45675,9.052 2.84625,9.28675 3.25125,9.30875 C3.0345,9.49175 2.1075,9.40775 1.78575,9.37275 C2.188,10.40825 2.806,11.09775 3.86775,11.47225 C4.14175,11.569 4.476,11.6545 4.84475,11.648 C4.649,11.8805 4.23125,12.07 3.95575,12.23075 C3.38775,12.563 2.72825,12.7785 1.98575,12.9415 C1.688,13.0065 1.3715,12.99325 1.04875,13.045 C0.692,13.1025 0.31875,13.01475 -0.00025007325,13.005 C0.095749925,13.0635 0.191999925,13.1225 0.288,13.18075 C0.58075,13.359 0.8865,13.51525 1.217,13.65975 C1.81175,13.92 2.4455,14.11625 3.147,14.2905 C4.5615,14.6415 6.557,14.48375 7.79175,14.099 C11.23025,13.02725 13.40225,10.52575 14.22225,6.8415 C14.36325,6.20775 14.38375,5.488 14.3745,4.73375 C14.5455,4.598 14.71625,4.46225 14.887,4.3265 C15.31025,3.9875 15.707,3.515 16,3.049 L16,3.041 C15.442,3.216 14.8545,3.53725 14.142,3.54475 L14.142,3.54475 Z" id="Fill-1" fill="#FFFFFF" sketch:type="MSShapeGroup" mask="url(#mask-2)"></path>
            </g>
            <path d="M24.7615,54 L11.23225,54 C10.55175,54 10,54.552 10,55.233 L10,68.8215 C10,69.50275 10.55175,70.0035 11.23225,70.0035 L24.7615,70.0035 C25.44175,70.0035 25.9935,69.503 25.9935,68.8215 L25.9935,55.233 C25.99325,54.552 25.442,54 24.7615,54 L24.7615,54 Z M22.4005,59.30125 C22.01,59.07325 21.69975,58.89275 21.31275,58.89275 C20.932,58.89275 20.60375,58.9885 20.4385,59.14875 C20.27325,59.30875 20.1905,59.61675 20.1905,60.07175 L20.1905,60.7445 L22.2275,60.7445 L21.7855,62.618 L20.19025,62.618 L20.19025,68.8415 L17.633,68.8415 L17.633,62.61775 L16.4365,62.61775 L16.4365,60.74425 L17.63325,60.74425 L17.63325,60.0295 C17.63325,59.2765 17.722,58.82525 17.9,58.45425 C18.07775,58.0835 18.42225,57.67075 18.8995,57.43775 C19.37675,57.20475 20.08475,57.088 20.81475,57.088 C21.5635,57.088 22.149,57.3365 22.86675,57.53875 L22.4005,59.30125 L22.4005,59.30125 Z" id="Shape" fill="#FFFFFF" sketch:type="MSShapeGroup"></path>
        </g>
    </g>
</svg>